<?xml version="1.0" encoding="utf-8"?>
<!-- Generator: Adobe Illustrator 21.1.0, SVG Export Plug-In . SVG Version: 6.00 Build 0)  -->
<svg version="1.1" id="Layer_1" xmlns="http://www.w3.org/2000/svg" xmlns:xlink="http://www.w3.org/1999/xlink" x="0px" y="0px"
	 viewBox="0 0 100 100" style="enable-background:new 0 0 100 100;" xml:space="preserve">
<style type="text/css">
	.st0{clip-path:url(#SVGID_2_);fill:none;stroke:#231F20;stroke-width:3.797;}
	.st1{clip-path:url(#SVGID_2_);fill:#231F20;}
</style>
<g>
	<defs>
		<rect id="SVGID_1_" x="15" y="15.4" width="69.6" height="69.6"/>
	</defs>
	<clipPath id="SVGID_2_">
		<use xlink:href="#SVGID_1_"  style="overflow:visible;"/>
	</clipPath>
	<circle class="st0" cx="49.8" cy="50.2" r="32.9"/>
	<path class="st1" d="M62.6,56v4c-1.3,1-3.1,1.6-5.1,1.6c-4.3,0-7.2-3.2-7.2-7.6V54c0-4.1,3-7.5,6.9-7.5c2.7,0,4.3,0.9,6,2.3
		l2.4-2.8C63.2,44.1,61,43,57.3,43c-6.1,0-10.5,4.6-10.9,10.2h-9.2V35.4h-3.7v21.3h13.2c1,4.9,5.1,8.4,10.8,8.4
		c3.8,0,6.8-1.5,8.9-3.3v-8.9h-9.1V56H62.6z"/>
</g>
<g>
</g>
<g>
</g>
<g>
</g>
<g>
</g>
<g>
</g>
<g>
</g>
<g>
</g>
<g>
</g>
<g>
</g>
<g>
</g>
<g>
</g>
<g>
</g>
<g>
</g>
<g>
</g>
<g>
</g>
</svg>
