<?xml version="1.0" encoding="utf-8"?>
<!-- Generator: Adobe Illustrator 21.1.0, SVG Export Plug-In . SVG Version: 6.00 Build 0)  -->
<svg version="1.1" id="Layer_1" xmlns="http://www.w3.org/2000/svg" xmlns:xlink="http://www.w3.org/1999/xlink" x="0px" y="0px"
	 viewBox="0 0 100 100" style="enable-background:new 0 0 100 100;" xml:space="preserve">
<style type="text/css">
	.st0{fill:#FFFFFF;}
	.st1{clip-path:url(#SVGID_2_);fill:#FFFFFF;}
	.st2{clip-path:url(#SVGID_2_);fill:none;stroke:#FFFFFF;stroke-width:9;}
</style>
<polygon class="st0" points="33.8,57.1 49,57.1 49,53.6 37.6,53.6 37.6,35.4 33.8,35.4 "/>
<g>
	<defs>
		<rect id="SVGID_1_" x="15" y="15" width="71" height="71"/>
	</defs>
	<clipPath id="SVGID_2_">
		<use xlink:href="#SVGID_1_"  style="overflow:visible;"/>
	</clipPath>
	<path class="st1" d="M58.2,65.6c3.8,0,6.9-1.5,9-3.4v-9.1H58v3.3h5.5v4.1c-1.3,1-3.2,1.6-5.2,1.6c-4.4,0-7.4-3.3-7.4-7.7v-0.1
		c0-4.2,3-7.7,7-7.7c2.8,0,4.4,0.9,6.1,2.3l2.4-2.9c-2.2-1.9-4.6-2.9-8.3-2.9c-6.5,0-11.2,5.1-11.2,11.2v0.1
		C46.9,60.8,51.4,65.6,58.2,65.6"/>
	<circle class="st2" cx="50.5" cy="50.5" r="33.6"/>
</g>
<g>
</g>
<g>
</g>
<g>
</g>
<g>
</g>
<g>
</g>
<g>
</g>
<g>
</g>
<g>
</g>
<g>
</g>
<g>
</g>
<g>
</g>
<g>
</g>
<g>
</g>
<g>
</g>
<g>
</g>
</svg>
